<?xml version="1.0" encoding="UTF-8" standalone="no"?>
<!DOCTYPE svg PUBLIC "-//W3C//DTD SVG 1.1//EN" "http://www.w3.org/Graphics/SVG/1.1/DTD/svg11.dtd">
<svg width="100%" height="100%" viewBox="0 0 17 17" version="1.1" xmlns="http://www.w3.org/2000/svg" xmlns:xlink="http://www.w3.org/1999/xlink" xml:space="preserve" xmlns:serif="http://www.serif.com/" style="fill-rule:evenodd;clip-rule:evenodd;stroke-linejoin:round;stroke-miterlimit:2;">
    <path d="M12.525,4.027L4.511,4.086C3.817,6.663 3.052,9.262 4.527,11.156L6.869,12.108L6.61,12.955L5.434,13.325L3.443,12.092L3.829,12.831C4.091,13.488 4.422,14.028 5.19,14.229C5.645,14.349 6.167,14.1 6.543,14.367C6.99,14.686 6.416,15.733 6.809,16.044C7.875,16.889 9.787,16.924 10.522,15.754C10.936,15.096 10.452,13.607 10.539,12.253C14.591,10.216 13.49,7.107 12.525,4.027Z" style="fill:rgb(255,187,69);"/>
    <g transform="matrix(1,0,0,1,0.5,0.5)">
        <path d="M8,0C3.58,0 0,3.58 0,8C0,11.54 2.29,14.53 5.47,15.59C5.87,15.66 6.02,15.42 6.02,15.21C6.02,15.02 6.01,14.39 6.01,13.72C4,14.09 3.48,13.23 3.32,12.78C3.23,12.55 2.84,11.84 2.5,11.65C2.22,11.5 1.82,11.13 2.49,11.12C3.12,11.11 3.57,11.7 3.72,11.94C4.44,13.15 5.59,12.81 6.05,12.6C6.12,12.08 6.33,11.73 6.56,11.53C4.78,11.33 2.92,10.64 2.92,7.58C2.92,6.71 3.23,5.99 3.74,5.43C3.66,5.23 3.38,4.41 3.82,3.31C3.82,3.31 4.49,3.1 6.02,4.13C6.66,3.95 7.34,3.86 8.02,3.86C8.7,3.86 9.38,3.95 10.02,4.13C11.55,3.09 12.22,3.31 12.22,3.31C12.66,4.41 12.38,5.23 12.3,5.43C12.81,5.99 13.12,6.7 13.12,7.58C13.12,10.65 11.25,11.33 9.47,11.53C9.76,11.78 10.01,12.26 10.01,13.01C10.01,14.08 10,14.94 10,15.21C10,15.42 10.15,15.67 10.55,15.59C13.798,14.494 15.999,11.428 16,8C16,3.58 12.42,0 8,0Z" style="fill:rgb(238,213,191);fill-rule:nonzero;stroke:black;stroke-width:0.7px;"/>
    </g>
    <path d="M5.97,16.09C5.97,16.09 8.879,16.959 11.05,16.09" style="fill:none;stroke:black;stroke-width:0.7px;stroke-linecap:round;stroke-miterlimit:1.5;"/>
</svg>
