<?xml version="1.0" encoding="UTF-8" standalone="no"?>
<!DOCTYPE svg PUBLIC "-//W3C//DTD SVG 1.1//EN" "http://www.w3.org/Graphics/SVG/1.1/DTD/svg11.dtd">
<svg width="100%" height="100%" viewBox="0 0 580 459" version="1.1" xmlns="http://www.w3.org/2000/svg" xmlns:xlink="http://www.w3.org/1999/xlink" xml:space="preserve" xmlns:serif="http://www.serif.com/" style="fill-rule:evenodd;clip-rule:evenodd;stroke-linecap:round;stroke-linejoin:round;stroke-miterlimit:10;">
    <g transform="matrix(0.949967,0,0,0.953152,3.72047,-59.3808)">
        <g id="Layer_3">
            <path d="M312.53,527.51C514.32,468.4 601.65,276.34 578.32,77C582.76,158.82 526.81,235.84 474.06,293.26C457.01,249.26 415.06,214.26 366.19,217.39C349.9,218.89 318.39,230.39 305.71,240.1L350,258C360.334,262.105 369.917,267.894 378.36,275.13C387.22,282.81 394.82,292.13 399.04,302.13C407.64,322.58 396.09,345.64 374.78,351.85C353.21,358.13 326.12,357.1 306.78,357.26L295.78,357.26C276.18,357.1 248.57,358.16 226.84,351.56C206.48,345.37 195.3,323.12 203.06,303.31C206.93,293.45 214.06,284.31 222.56,276.58C231.416,268.64 241.606,262.33 252.66,257.94L297,240.1C284.32,230.38 252.81,218.89 236.51,217.39C187.68,214.29 145.7,249.3 128.65,293.26C75.87,235.84 19.92,158.82 24.35,77C1,276.34 88.36,468.4 290.15,527.51C292.017,528.058 296.912,528.325 301.724,528.31C306.281,528.295 310.763,528.029 312.53,527.51Z" style="fill:rgb(255,187,69);fill-rule:nonzero;stroke:black;stroke-width:26.2px;"/>
        </g>
    </g>
</svg>
